<?xml version="1.0" encoding="UTF-8"?>
<svg xmlns="http://www.w3.org/2000/svg" viewBox="0 0 1125 2436" style="opacity: 0.5">
  <path d="M733.98,481.62c-4.23-2.19-9.67-1.83-16.22-.25-7.26,1.75-15.52-.54-23.31-1.27-1.95-.18-3.85-2.07-5.69-1.94-19.76,1.33-30.57-9.52-37.26-26.55-.74-1.89-3.31-3.38-5.35-4.39-12.07-5.96-13.64-12.53-7.63-24.05,2.31-4.43,2.19-10.84,1.3-16.02-1.08-6.28-4.37-12.15-6.3-18.33-3.75-12.02.06-24.76,9.19-31.68.63-.48,1.33-1.08,2.07-1.2,14.01-2.23,28.02-4.41,42.04-6.55,3.57-.54,7.6-.04,10.62-1.59,2.87-1.47,5.73-4.72,6.53-7.73.42-1.57-3.21-4.97-5.67-6.45-21.91-13.26-23.52-16.87-17.94-42.3.26-1.18.69-2.36.68-3.54-.18-18.2,3.97-25.36,20.79-32.19,33.51-13.61,68.28-19.17,104.28-13.62,3.52.54,6.31,5.33,9.62,7.91,6.65,5.19,13.43,10.23,19.07,14.51,10.1-16.44,19.73-30.22,27.21-45.08,4.04-8.04,5.17-17.84,6.26-27,2.48-20.82,17.29-36.7,37.72-37.87,16.84-.96,27.44-9.99,32.53-24.79,4.43-12.88,11.82-18.43,25.27-17.12,17.06,1.67,28.96-3.84,36.08-21.41,7.23-17.85,22.41-21.2,40.23-12.58,7.17,3.47,14.78,6.03,25.62,10.38-.97-7.34-2.18-13-2.31-18.69-.1-4.26,1.18-8.55,1.85-12.83,3.84,1.82,8.45,2.83,11.38,5.6,7.89,7.47,15.21,15.56,22.46,23.66,6.94,7.75,3.14,14.08-1.49,22.68-5.98,11.09-13.34,19.43-22.94,26.82-1.17.9.34,5.95,1.31,8.84,5.13,15.18,2.74,22.18-10.68,30.18-8.62,5.14-14.17,20.54-13.6,30.55.37,6.56-2.65,13.51-5.08,19.94-1.65,4.36-6.35,7.85-7.18,12.2-3.45,18.11-4.95,30.49-6.3,48.83M861.32,537.67c-33.15-6.16-67.56-15.83-76.54-27.49-7.38-9.58-14.96-19-22.14-28.12-3.13,1.42-5.94,3.86-7.54,3.22-9.96-3.97-11.24.95-12.28,11.21-.41-1.5-.76-3.02-1.24-4.49-.87-2.67-1.93-4.82-3.17-6.51M911.38,544.47c-7.85-.58-17.56-1.66-28.1-3.17M911.38,544.47,908.92,543.94,918.17,549.53,905.03,550.2c4.4,0,8.81-.12,13.15-.67M750.2,517.61c.88.74,2.05,1.14,3.76,2.06,1.5-2.26,2.91-4.38,4.6-6.93,2.06,2.69,3.95,5.18,4.75,6.23,5.23,0,10.24-1.59,12.7.24,30.67,22.77,65.4,28.84,101.25,30.44M748.58,516.28c.53.43,1.07.87,1.62,1.33M960.41,581.65c4.69.99,9.37,1.99,14.06,2.98l.47,3.36c-3.67,1.94-7.34,3.89-11.02,5.82-29.69,15.58-59.66,30.68-88.97,46.95-14.55,8.07-28.41,9.89-44.13,4.25-6.62-2.38-14.97-3.46-21.59-1.66-15.88,4.32-31.59,9.85-46.58,16.64-6.33,2.86-12.2,9.28-15.63,15.53-11.35,20.66-32.1,33.2-55.19,28.91-13.1-2.43-26.02-7.76-38-13.79-11.67-5.88-20.32-4.66-26.1,6.92-11.59,23.22-32.02,29.25-55.3,16.28-3.18-1.77-6.16-3.89-9.32-5.7q-14.09-8.08-20.9,6.73c-8.92-13.68-8.22-17.51,4.66-25.54,10.83-6.75,11.33-22.61.97-30.88-17.75-14.16-15.14-33.81,5.89-42.95,23.76-10.33,35.44-30.99,45.86-52.82,7.8-16.36,13.28-18.78,30.63-13.09,11.99,3.93,22.5,2.86,33.09-5.2,6.1-4.63,15.11-5.22,22-9.08,8.04-4.49,15.97-9.76,22.59-16.11,12.99-12.47,20.83-15.52,32.48-8.72M947.52,434.72c33.13,32.42,54.59,64.25,54.59,100.27,0,3.72,2.07-21.43-1.38-80.17-3.46-58.74-10.23-32.79-12.44-73.98-.87-16.26-5.34-26.27-8.11-31.02-1.27-2.18-1.17-4.89.33-6.92,26.6-36.12,79.79-82.2,93.12-86.72,14.13-4.79,28.6-8.58,42.85-13.04,12.25-3.83,13.34-15.29,13.68-24.79.49-13.57,6.95-13.8,17.29-12.17,20.93,3.29,41.97,5.96,63.01,8.47,3.38.4,7.37-.66,10.44-2.27,4.35-2.29,8.73-8.76,11.99-8.08,8.52,1.77,17.99,4.7,24.27,10.3,14.56,12.99,27.81,27.52,40.89,42.07,6.18,6.87,2.25,15.43-6.95,15.63-58.89,1.28-100.03,34.46-134.48,77.11-20.62,25.53-37.22,54.31-55.73,81.56-1.66,2.45-4.05,4.42-6.22,6.49-7.59,7.27-12.38,15.48-12.27,26.61.07,7.03-1.99,14.08-5.79,21.36-.49-2.5-.97-5.01-2.19-11.29-4.15,6.24-7.99,9.62-8.71,13.57-2.06,11.22-1.08,23.26-4.6,33.88-4.12,12.42-11.57,23.77-18.03,35.33-.94,1.69-4.37,1.98-5.32,4.24,27.64-5.78,34.69-16.3,32.11-41.48-.4-3.89,4.97-11.94,7.73-11.98,13.63-.15,17.14-10.17,21.89-19.34,2-3.85,3.63-7.9,5.81-12.68,8.68,6.26,15.46,13.3,13.55,23.27-1.8,9.42-10.04,12.41-19.53,13.05-4.11.28-7.98,4.08-14.55,7.72,5.46,3.33,8.17,5.33,11.15,6.75,19.98,9.55,34.1,24.4,40.66,45.69.99,3.2.37,8.43-1.7,10.78-14.1,15.99-13.2,28.08,5.52,40.01,6.86,4.38,9.24,8.85,9.79,16.35.37,5.05,3.39,9.86,4.73,14.91,1.08,4.06,2.53,8.48,1.94,12.45-4.01,26.67-4.19,26.55-30.64,31.61-4.29.82-8.98,2.04-12.38,4.56-10.61,7.84-18.66,4.93-27.75-3.29-17.39-15.73-40.25-11.25-53.23,8.46-2.76,4.19-10.2,9.06-14.11,8.09-18.03-4.48-35.57-10.92-55.71-17.44-2.14,4.79-4.9,11.01-8,17.95-16.22-5.09-26.16-16.1-27.27-36.07,11.96-7.32,25.04-15.34,40.76-24.97-13.28-5.33-22.42,1.14-31.86,1.78-4.52.31-9.06.43-13.59.64.25-4.58-.27-9.36.89-13.7,5.24-19.68,6.53-20.03,27.06-22.72,18.72-2.45,34.48-10.1,45.15-27.13,4.06-6.49,11.48-10.9,17.45-16.16,2.54-2.24,5.3-4.23,8.65-6.88-2.38-1.5-3.94-2.79-4.17-2.58-12.74,11.38-27.07,5.41-41.39,6.37M905.96,397.18c3.8,3.16,7.97,6.67,12.58,10.62,6.87,5.89,8.44,7.46,15.05,13.8M886.82,381.63c3.54,2.82,7.51,6,12.11,9.75M834.79,264.38s-1.36,35.43-6.19,45.53c-4.84,10.09-.69,11.21,20.74,36.58,12.4,14.67,19.3,20.63,31.19,30.13M936.21,404.04c-2.34,4.6-4.44,27.7-.12,34.64,4.33,6.94,9.7,2.52,11.94-5.64,2.24-8.15-3.61-45.14-11.83-29.01ZM918.17,549.53,740.37,510.5" fill="none" stroke="#000" stroke-linecap="round" stroke-linejoin="round"/>
  <path d="M999.74,554.91c-13.69-6.95-23.59-18.57-31.84-31.33-10.75-16.43-16.43-35.99-20.38-55.17-.65-2.94-1.72-8.85-2.15-11.84-.86-5.07-1.56-10.18-2.17-15.3-1.32.91-2.74,1.1-4.16.39.39,11.35,1.31,22.7,2.94,33.9,3.77,22.3,10.58,49.31,25.9,67.35.98.58,1.97,1.16,2.98,1.73,13.01,7.43,27.53,12.61,42.91,15.44-4.96-1.16-9.67-2.94-14.03-5.17Z" fill="none" stroke="#000" stroke-linecap="round" stroke-linejoin="round"/>
  <path d="M931.72,557.03c1.4.29,2.79.58,4.19.86,16.9,3.44,34.23,5.48,51.96,6.99-12.58-2.74-24.63-6.84-35.84-12.07-34.93-15.99-60.23-48.2-67.03-86.06-5.64-30.82-2.43-62.7,3.29-93.34,1.78-8.11,3.28-16.47,5.51-24.47,1.48-5.52,3.54-14.08,5.26-19.42l5.8-19.32-1.48-.55s-7.48,18.81-7.48,18.81c-1.09,2.58-2.57,6.89-3.46,9.52-3.26,9.32-6.7,19.52-9.28,29.01-13.14,46.06-19.3,97.46.72,142.62,9.45,21.24,27.06,37.59,47.86,47.42Z" fill="none" stroke="#000" stroke-linecap="round" stroke-linejoin="round"/>
  <path d="M994.25,565.4c-19.96-1.56-39.41-3.66-58.34-7.51-27.92-5.56-56.86-13.47-77.11-34.66-2.95-2.69-5.75-6.31-8.35-9.33-.68-.99-4.37-6.26-5.13-7.37-8.87-14.51-14.3-31.09-16.41-48.01-.37-1.89-.55-4.63-.73-6.73-.64-.05-1.31-.32-2.01-.82,0,.17,0,.27,0,.27,0,1.39-.06,4.22-.05,5.64.48,5.62.59,11.3,1.68,16.87,2.07,14.89,7.48,30.03,15.58,42.82.55.98,1.45,2.33,2.14,3.22,2.13,2.92,4.67,6.52,7.17,9.15,13.67,15.67,32.08,26.51,51.3,33.98,28.13,10.49,61.53,11.41,90.42,3.73l-.16-1.25Z" fill="none" stroke="#000" stroke-linecap="round" stroke-linejoin="round"/>
  <path d="M994.08,565.44c-28.98,7.58-58.02,13.76-87.2,16.89-59.56,6.78-120.13,2.28-152.9-55.35-13.04-23.12-18.59-49.76-20.75-76.23-.4-.22-.82-.48-1.25-.79-.21-.15-.41-.32-.62-.49.16,12.41,1.16,24.84,3.33,37.14,20.83,129.37,165.54,129.87,259.87,79.99l-.49-1.16Z" fill="none" stroke="#000" stroke-linecap="round" stroke-linejoin="round"/>
  <path d="M716.44,413.15c-.15,6.07,8.3,31.63,15.55,36.81,7.26,5.18,10.37-2.22,8.81-12s-23.85-46.07-24.37-24.81Z" fill="none" stroke="#000" stroke-linecap="round" stroke-linejoin="round"/>
  <path d="M814.02,418.55c-1.36,5.15,5.7,25.04,10.54,30.88,4.85,5.83,8.89.12,9.62-8.52.73-8.64-15.4-40.39-20.16-22.36Z" fill="none" stroke="#000" stroke-linecap="round" stroke-linejoin="round"/>
  <path d="M896.09,394.98c-2.43,4.74-3.71,28.94,1.5,36.46,5.22,7.51,11.08,3.11,13.22-5.37,2.14-8.48-6.21-47.68-14.72-31.09Z" fill="none" stroke="#000" stroke-linecap="round" stroke-linejoin="round"/>
  <path d="M1022.1,561.4c-18.49-2.33-35.9-8-51.24-16.75-34.2-19.3-50.96-47.96-60.34-85.31-2.05-8.17-3.56-16.49-4.71-24.88-1.1.7-2.29.97-3.52.71.23,3.83.52,7.62.91,11.3,2.64,23.54,8.69,47.17,21.08,67.61,9.82,16.68,23.65,31.91,41.44,40.31,17.45,8.3,37.51,11.99,56.48,8.11l-.1-1.1Z" fill="none" stroke="#000" stroke-linecap="round" stroke-linejoin="round"/>
</svg>
