<?xml version="1.0" encoding="UTF-8"?>
<svg xmlns="http://www.w3.org/2000/svg" viewBox="0 0 1125 2436">
  <path d="M823.39,827.43h0c-3.4.2-5.91-.63-5.91-4.03V89.86c0-3.13,2.44-5.71,5.56-5.9h0c3.4-.2,6.27,2.5,6.27,5.9v733.54c0,3.13-2.79,3.84-5.91,4.03Z" fill="none" stroke="#000" stroke-linecap="round" stroke-linejoin="round"/>
  <path d="M1090.5,260.13c5.77,8.11,9.76,17.95,10.76,30.14,1.54,18.76-3.41,32.88-10.76,43.53v16.48c4.06.98,8.01,2.24,11.82,3.75V115.71c-3.85,5.47-8.05,11.78-11.82,18.15v126.26Z" fill="none" stroke="#000" stroke-linecap="round" stroke-linejoin="round"/>
  <path d="M757.89,622.62v188.39c0,3.4,2.51,4.69,5.91,4.48h0c3.12-.19,5.91-1.35,5.91-4.48v-196.28c-3.46,2.28-7.42,4.93-11.82,7.89Z" fill="none" stroke="#000" stroke-linecap="round" stroke-linejoin="round"/>
  <path d="M757.89,497.09v69.09c4.82-2.04,8.86-2.91,11.82-3.24v-65.85c0-3.4-2.87-6.11-6.27-5.9h0c-3.12.19-5.56,2.77-5.56,5.9Z" fill="none" stroke="#000" stroke-linecap="round" stroke-linejoin="round"/>
  <path d="M775.2,562.89s-11.16-1.93-26.93,8.48c-15.77,10.41-276.21,176.57-287.24,180.67s-14.19,6.62-30.58,8.2-38.73,5.06-56.44,15.13c-18.29,10.41-34.05,20.18-36.89,37.52" fill="none" stroke="#000" stroke-linecap="round" stroke-linejoin="round"/>
  <path d="M1077.13,348.12l-8.29-.68c-51.05-4.21-94.81,36.09-94.81,87.31v87.12l183.51,15.13v-101.57c0-45.59-34.97-83.56-80.41-87.31Z" fill="none" stroke="#000" stroke-linecap="round" stroke-linejoin="round"/>
  <path d="M1206.73,779.15c-11.35-7.57-24.59-17.03-43.51-99.64-4.5-19.64-11.35-34.11-19.18-44.76,2.01,6.75,3.1,13.88,3.1,21.27,0,41.71-34.3,75.52-76.62,75.52-20.35,0-38.84-7.84-52.56-20.59,1.59,19.29,6.35,36.12,14.09,46.13,10.72,13.87,32.79,16.4,60.54,51.71,27.75,35.31,54.23,44.77,85.13,44.14,30.9-.63,41.62-25.85,51.08-43.51,9.46-17.66-10.72-22.7-22.07-30.27Z" fill="none" stroke="#000" stroke-linecap="round" stroke-linejoin="round"/>
  <polyline points="829.31 96.2 948.81 26.2 963.96 30.28" fill="none" stroke="#000" stroke-linecap="round" stroke-linejoin="round"/>
  <path d="M1017.35,608.25c21.25-18.29,42.55-23.89,58.21-27.75,17.91-4.41,33.81-2.47,47.57,3.23-13.26-22.54-37.98-37.71-66.32-37.71-42.32,0-76.62,33.81-76.62,75.52,0,10.4,2.14,20.31,6,29.33,6.68-15.75,18.25-31.51,31.16-42.62Z" fill="none" stroke="#000" stroke-linecap="round" stroke-linejoin="round"/>
  <path d="M1056.82,546.02c28.33,0,53.06,15.17,66.31,37.71,7.1,2.94,13.63,6.87,19.57,11.46l14.84-58.2-183.51-15.13-7.22,41.87c-3.47,20.12,2.03,39.57,13.47,54.44,1.79-40.14,35.36-72.15,76.53-72.15Z" fill="none" stroke="#000" stroke-linecap="round" stroke-linejoin="round"/>
  <path d="M1083.76,605.73s60.54-8.83,79.46,73.78c18.92,82.61,32.16,92.07,43.51,99.64,11.35,7.57,31.53,12.61,22.07,30.27-9.46,17.66-20.18,42.88-51.08,43.51-30.9.63-57.39-8.83-85.13-44.14-27.75-35.31-49.82-37.84-60.54-51.71-10.72-13.87-15.77-40.78-14.5-69.26,1.26-28.48,19.55-78.3,66.21-82.09Z" fill="none" stroke="#000" stroke-linecap="round" stroke-linejoin="round"/>
  <path d="M1075.56,580.51c-15.65,3.85-36.96,9.46-58.21,27.75-21.25,18.29-38.91,49.19-37.02,71.89,1.89,22.7,11.98,34.44,14.5,49.07,2.52,14.63,13.73,54.99,33.04,74.53,19.3,19.55,33.18,33.42,37.91,43.51,4.73,10.09,8.51,32.16,37.52,30.27,29.01-1.89,44.77,6.31,74.41,5.68,29.64-.63,45.4-13.82,58.02-30.24,12.61-16.43,21.44-26.51,20.81-44.8-.63-18.29-2.52-22.07-30.9-39.73-28.38-17.66-39.1-79.46-40.36-103.42-1.26-23.96-40.51-101.54-109.73-84.5Z" fill="none" stroke="#000" stroke-linecap="round" stroke-linejoin="round"/>
  <path d="M769.71,507.19v55.74c-.89.1-1.88.25-2.95.46,5.28-1.03,8.44-.51,8.44-.51,5.03-3.32,8.18-5.42,9.02-6.03,5.28-3.82,13.49-4.91,19.5-5.15,3.07-.12,5.19,3.01,3.96,5.83-1.96,4.48-3.92,12.01-3.59,23.92.3,11.01-6.27,16.85-12.88,20.62l26.28-3.91v-111.85l-47.77,20.89Z" fill="none" stroke="#000" stroke-linecap="round" stroke-linejoin="round"/>
  <path d="M784.22,556.86c5.28-3.82,13.49-4.91,19.5-5.15.33-.01.65.03.96.09l-.38-59.72-25.08,10.96.24,57.03c2.56-1.7,4.2-2.8,4.76-3.21Z" fill="none" stroke="#000" stroke-linecap="round" stroke-linejoin="round"/>
  <path d="M807.67,557.53c1.23-2.81-.89-5.95-3.96-5.83-6.01.24-14.22,1.33-19.5,5.15-9.14,6.62-294.81,192.34-316.25,201.17-21.44,8.83-59.11,5.27-79.14,14.82-22.4,10.68-47.93,24.91-51.71,40.04s-1.26,20.18,3.78,20.49,16.71-11.98,25.86-12.3c9.14-.32,22.07-2.52,30.58-.32,8.51,2.21,5.04,3.78,20.18,3.78s16.71-4.73,23.65-8.2,42.25-10.72,73.47-28.69c31.22-17.97,256.34-175.94,269.9-182.25,7.82-3.64,19.96-9.09,19.55-23.96-.33-11.91,1.63-19.44,3.59-23.92Z" fill="none" stroke="#000" stroke-linecap="round" stroke-linejoin="round"/>
  <path d="M1008.87,10.06c8.02-8.49,17.91-13.5,28.62-13.5,26.75,0,48.43,31.29,48.43,69.9s-21.68,69.9-48.43,69.9c-.38,0-.76,0-1.14-.02" fill="none" stroke="#000" stroke-linecap="round" stroke-linejoin="round"/>
  <path d="M1010.79,161.99c.56,4.51.01,8.85-1.76,12.82-8.64,19.33-43.23,22.66-77.27,7.45-34.04-15.21-54.63-43.21-46-62.54,1.55-3.46,3.92-6.4,6.98-8.82" fill="none" stroke="#000" stroke-linecap="round" stroke-linejoin="round"/>
  <path d="M1006.53,186.82c.71.64,1.27,1.36,1.7,2.18,5.45,10.57-15.87,32.42-47.62,48.81-31.76,16.39-61.92,21.11-67.37,10.55-.75-1.46-1-3.14-.77-4.99" fill="none" stroke="#000" stroke-linecap="round" stroke-linejoin="round"/>
  <path d="M1045.43-2.5c9.39-1.58,19.27-1.21,29.07,1.46,36.11,9.81,57.45,46.93,47.68,82.91-8.33,30.68-36.61,50.63-67.14,49.76" fill="none" stroke="#000" stroke-linecap="round" stroke-linejoin="round"/>
  <path d="M967.28,429.49c.87-3.19.53-6.57-.81-9.99" fill="none" stroke="#000" stroke-linecap="round" stroke-linejoin="round"/>
  <path d="M902.26,441.17c31.81,8.64,60.92,3.42,65.02-11.67" fill="none" stroke="#000" stroke-linecap="round" stroke-linejoin="round"/>
  <path d="M852.08,398.2c-4.1,15.09,18.37,34.32,50.18,42.97" fill="none" stroke="#000" stroke-linecap="round" stroke-linejoin="round"/>
  <path d="M854.48,393.38c-1.11,1.47-1.93,3.08-2.4,4.82" fill="none" stroke="#000" stroke-linecap="round" stroke-linejoin="round"/>
  <path d="M884.73,510.72c-.75-.89-.82-2.29-.28-4.13" fill="none" stroke="#000" stroke-linecap="round" stroke-linejoin="round"/>
  <path d="M937.94,481.24c-25.21,21.24-49.04,34.43-53.21,29.47" fill="none" stroke="#000" stroke-linecap="round" stroke-linejoin="round"/>
  <path d="M974.12,442.73c-5.37,9.31-18.85,23.91-36.18,38.51" fill="none" stroke="#000" stroke-linecap="round" stroke-linejoin="round"/>
  <path d="M971.43,395.85c.54,2.68.36,4.46-.63,5.13" fill="none" stroke="#000" stroke-linecap="round" stroke-linejoin="round"/>
  <path d="M970.8,400.98c-4.44,2.99-23.58-17.66-42.76-46.12-19.18-28.46-31.13-53.96-26.69-56.95.66-.45,1.65-.37,2.92.19" fill="none" stroke="#000" stroke-linecap="round" stroke-linejoin="round"/>
  <path d="M914.17,532.65c15.65,12.77,21.83,21.03,36.17,37.36" fill="none" stroke="#000" stroke-linecap="round" stroke-linejoin="round"/>
  <path d="M892.38,514.33c6.16,5.57,13.41,11.48,21.79,18.32" fill="none" stroke="#000" stroke-linecap="round" stroke-linejoin="round"/>
  <path d="M852.99,413.85c0,46.1,11.41,75.21,39.39,100.48" fill="none" stroke="#000" stroke-linecap="round" stroke-linejoin="round"/>
  <path d="M904.63,297.71c-19.28,19.51-51.63,60.54-51.63,116.13" fill="none" stroke="#000" stroke-linecap="round" stroke-linejoin="round"/>
  <path d="M1039.72,240.57c-47.76,0-100.79,22.43-135.1,57.14" fill="none" stroke="#000" stroke-linecap="round" stroke-linejoin="round"/>
  <path d="M1096.41,297.26c0-31.31-25.38-56.69-56.69-56.69" fill="none" stroke="#000" stroke-linecap="round" stroke-linejoin="round"/>
  <path d="M1066.38,347.29c17.87-9.54,30.03-28.36,30.03-50.03" fill="none" stroke="#000" stroke-linecap="round" stroke-linejoin="round"/>
  <path d="M974.03,435.08c-2.17-1.82-4.1-3.48-5.65-4.88-.33-.3-.61-.56-.85-.78-.45-2.06-1.16-6.73-1.16-15.57,0-15.63,13.21-30.69,18.89-36.44,9.09-9.19,22.99-16.83,36.59-20.71" fill="none" stroke="#000" stroke-linecap="round" stroke-linejoin="round"/>
  <path d="M1077.19,348.13c13.48-11.13,26.43-29.01,24.07-57.86-3.68-44.92-47.75-58.24-73.62-68.6-29.85-11.96-35.63-81.64,32.06-92.62,21.93-3.56,56.54-28.13,56.54-62.59S1093.04,1.7,1059.36,1.7c-1.44,0-2.87.07-4.29.17v-.17c-5.1.14-32.12,1.52-64.15,14.85-45.02,18.74-79.29,52.08-99.11,96.43-26.48,59.26-11.71,114.86,8.99,144.46,5.13,7.34,11.92,15.54,22.48,23.96" fill="none" stroke="#000" stroke-linecap="round" stroke-linejoin="round"/>
  <path d="M978.58,251.78c1.9-2.49,4.23-4.3,6.96-5.27,14.57-5.17,35.16,15.38,46,45.9,9.05,25.48,8.43,49.85-.49,60.22" fill="none" stroke="#000" stroke-linecap="round" stroke-linejoin="round"/>
  <path d="M1115,98.74s-34.08,42.23-35.98,62.73c-1.89,20.49-24.59,58.94-66.41,46.37" fill="none" stroke="#000" stroke-linecap="round" stroke-linejoin="round"/>
  <path d="M1014.04,156.27c.77,2.89.93,4.6.39,4.85-2.39,1.11-17.79-26.98-34.39-62.74-16.6-35.76-28.12-65.65-25.72-66.76.5-.23,1.56.8,3.07,2.89" fill="none" stroke="#000" stroke-linecap="round" stroke-linejoin="round"/>
  <path d="M969.33,597.58c-14.28-12.59-23.29-31.02-23.29-51.56,0-22.63,10.94-42.7,27.81-55.21" fill="none" stroke="#000" stroke-linecap="round" stroke-linejoin="round"/>
  <path d="M1082.83,147.15c.76,3.74,1.17,7.61,1.17,11.57,0,31.72-25.71,57.43-57.43,57.43-2.73,0-5.41-.19-8.04-.56" fill="none" stroke="#000" stroke-linecap="round" stroke-linejoin="round"/>
  <path d="M1094.22,127.8c-8.88,20.66-30.45,35.24-55.65,35.24-8.28,0-16.85-1.77-24.03-4.61" fill="none" stroke="#000" stroke-linecap="round" stroke-linejoin="round"/>
  <polyline points="859.47 78.53 869.03 19.26 1035.99 -39.39 1167.47 41.02 1128.22 125.2 1102.96 114.8" fill="none" stroke="#000" stroke-linecap="round" stroke-linejoin="round"/>
  <line x1="1035.99" y1="-39.39" x2="1008.87" y2="10.06" fill="none" stroke="#000" stroke-linecap="round" stroke-linejoin="round"/>
  <line x1="1083.99" y1="158.72" x2="1083.99" y2="252.4" fill="none" stroke="#000" stroke-linecap="round" stroke-linejoin="round"/>
  <line x1="829.31" y1="122.37" x2="883.8" y2="123.94" fill="none" stroke="#000" stroke-linecap="round" stroke-linejoin="round"/>
  <line x1="829.31" y1="332.68" x2="877.55" y2="332.68" fill="none" stroke="#000" stroke-linecap="round" stroke-linejoin="round"/>
  <line x1="829.31" y1="361.37" x2="862.85" y2="361.37" fill="none" stroke="#000" stroke-linecap="round" stroke-linejoin="round"/>
  <line x1="829.31" y1="595.64" x2="964.53" y2="592.91" fill="none" stroke="#000" stroke-linecap="round" stroke-linejoin="round"/>
  <line x1="769.71" y1="616.74" x2="817.48" y2="611.53" fill="none" stroke="#000" stroke-linecap="round" stroke-linejoin="round"/>
  <line x1="829.31" y1="609.51" x2="973.16" y2="606.8" fill="none" stroke="#000" stroke-linecap="round" stroke-linejoin="round"/>
  <path d="M417.52,824.55c-3.71,0-6.29-.1-8.22-.27v25.09c0,4.84,3.92,6.08,8.76,6.08s8.76-1.24,8.76-6.08v-25.66c-2.42.52-5.41.84-9.3.84Z" fill="none" stroke="#000" stroke-linecap="round" stroke-linejoin="round"/>
  <path d="M1103.31,877.52c-7.49.49-13.29-.63-17.86-2.72h0v33.28c0,5.41,4.39,7.67,9.8,7.67s9.8-2.26,9.8-7.67v-30.64c-.58.03-1.14.04-1.73.08Z" fill="none" stroke="#000" stroke-linecap="round" stroke-linejoin="round"/>
  <path d="M978.58,615.84v198.68c0,3.97-3.22,7.19-7.19,7.19h-1.72c-2.84,0-5.14-2.3-5.14-5.14l.42-209.62" fill="none" stroke="#000" stroke-linecap="round" stroke-linejoin="round"/>
  <path d="M940.45,607.42v193.24c0,2.84,2.3,3.48,5.14,3.48s5.14-.64,5.14-3.48v-193.43l-10.28.19Z" fill="none" stroke="#000" stroke-linecap="round" stroke-linejoin="round"/>
  <path d="M389.89,2271.17c-3.91,0-6.63-.1-8.66-.28v26.45c0,5.1,4.13,6.41,9.23,6.41s9.23-1.31,9.23-6.41v-27.06c-2.55.55-5.7.89-9.81.89Z" fill="none" stroke="#000" stroke-linecap="round" stroke-linejoin="round"/>
</svg>
