<?xml version="1.0" encoding="UTF-8"?>
<svg xmlns="http://www.w3.org/2000/svg" viewBox="0 0 1125 868.08">
  <path d="M126.87,432.01c52.53-220.93,507.52-232.79,711.63-202.14,204.49,20.23,599.32,190.71,324.59,415.29-337.94,226.61-862.31,214.19-1238.57,131.47,310.1,68.94,698.19,69.98,990.04-27.8,214.53-73.74,374.27-192.68,239.03-347.51-134.44-125.46-468.71-174.43-654.61-89.78-17.43,10.24-25.55,20.76-4.07,28.39,126.33-2.41,276.8-10.53,388.41,49.81,140.88,69.06,108.96,198.06-61.09,238.04-145.12,34.12-371.28,33.7-522.89,13.89-163.11-15.16-531.75-123.57-410.15-334.77,7.43-17.59,24.02-31.62,38.03-46.91,20.99-20.46,43.85-35.51,69.26-52.12C352.76,3.25,1048.58,16.21,1417.06,236.82,1083.89,45.88,569.35,27.83,205.64,137.77,47.05,185.7-169.2,315.27-14.38,463.29c31.32,23.72,67.4,43.23,110.01,50.96,15.55,2.26,41.09,1.08,36.67-16.8-1.36-22.01-6.79-43.44-5.43-65.45h0Z" fill="#fff" opacity=".1" stroke-width="0"/>
</svg>
